<svg xmlns="http://www.w3.org/2000/svg" xmlns:xlink="http://www.w3.org/1999/xlink" viewBox="0 0 541.99 223.42"><defs><style>.cls-1{fill:#282560;}.cls-2{fill:url(#New_Gradient_Swatch_1);}.cls-3{fill:url(#New_Gradient_Swatch_1-2);}.cls-4{fill:url(#New_Gradient_Swatch_1-3);}.cls-5{fill:url(#New_Gradient_Swatch_1-4);}.cls-6{fill:url(#New_Gradient_Swatch_1-5);}.cls-7{fill:url(#New_Gradient_Swatch_1-6);}</style><linearGradient id="New_Gradient_Swatch_1" x1="25.94" y1="24.9" x2="25.94" y2="195.09" gradientUnits="userSpaceOnUse"><stop offset="0" stop-color="#75cfe6"/><stop offset="1" stop-color="#51a5db"/></linearGradient><linearGradient id="New_Gradient_Swatch_1-2" x1="214.91" y1="24.9" x2="214.91" y2="195.09" xlink:href="#New_Gradient_Swatch_1"/><linearGradient id="New_Gradient_Swatch_1-3" x1="419.13" y1="24.9" x2="419.13" y2="195.09" xlink:href="#New_Gradient_Swatch_1"/><linearGradient id="New_Gradient_Swatch_1-4" x1="419.99" y1="24.9" x2="419.99" y2="195.09" xlink:href="#New_Gradient_Swatch_1"/><linearGradient id="New_Gradient_Swatch_1-5" x1="503.22" y1="24.9" x2="503.22" y2="195.09" xlink:href="#New_Gradient_Swatch_1"/><linearGradient id="New_Gradient_Swatch_1-6" x1="525.42" y1="24.9" x2="525.42" y2="195.09" xlink:href="#New_Gradient_Swatch_1"/></defs><title>color_logo</title><g id="Layer_2" data-name="Layer 2"><g id="Layer_1-2" data-name="Layer 1"><path class="cls-1" d="M327,176.71h2.61v15H327v-2.58a6.36,6.36,0,0,1-5.67,3,7.2,7.2,0,0,1-5.37-2.3,8.16,8.16,0,0,1,0-11.19,7.19,7.19,0,0,1,5.37-2.29,6.36,6.36,0,0,1,5.67,3Zm-5.34,12.87a5.11,5.11,0,0,0,3.81-1.55,5.37,5.37,0,0,0-3.81-9.19,5.14,5.14,0,0,0-3.78,1.54,5.55,5.55,0,0,0,0,7.65A5.08,5.08,0,0,0,321.66,189.58Z"/><path class="cls-1" d="M341.71,192.1a7.72,7.72,0,0,1-7.89-7.89,7.71,7.71,0,0,1,7.89-7.89,7.58,7.58,0,0,1,4,1.06,6.7,6.7,0,0,1,2.64,2.87l-2.19,1.26a4.46,4.46,0,0,0-1.76-1.92,5.39,5.39,0,0,0-6.45.81,5.52,5.52,0,0,0,0,7.59,5.1,5.1,0,0,0,3.77,1.53,5.32,5.32,0,0,0,2.7-.7,4.73,4.73,0,0,0,1.83-1.91l2.22,1.29A7.28,7.28,0,0,1,345.7,191,7.69,7.69,0,0,1,341.71,192.1Z"/><path class="cls-1" d="M359,192.1a7.72,7.72,0,0,1-7.89-7.89,7.71,7.71,0,0,1,7.89-7.89,7.58,7.58,0,0,1,4,1.06,6.7,6.7,0,0,1,2.64,2.87l-2.19,1.26a4.46,4.46,0,0,0-1.76-1.92,5.39,5.39,0,0,0-6.45.81,5.52,5.52,0,0,0,0,7.59,5.1,5.1,0,0,0,3.77,1.53,5.32,5.32,0,0,0,2.7-.7,4.8,4.8,0,0,0,1.83-1.91l2.22,1.29A7.28,7.28,0,0,1,363,191,7.72,7.72,0,0,1,359,192.1Z"/><path class="cls-1" d="M371.08,185.41a4.94,4.94,0,0,0,1.84,3.12,5.75,5.75,0,0,0,3.59,1.11,4.69,4.69,0,0,0,4.32-2.19l2.22,1.26a7.33,7.33,0,0,1-6.6,3.39,7.83,7.83,0,0,1-5.81-2.24,7.65,7.65,0,0,1-2.23-5.65,7.76,7.76,0,0,1,2.19-5.64,7.56,7.56,0,0,1,5.67-2.25,6.92,6.92,0,0,1,5.38,2.32,8.12,8.12,0,0,1,2.09,5.6,7.88,7.88,0,0,1-.09,1.17Zm5.19-6.63a5,5,0,0,0-5.19,4.35h10a5,5,0,0,0-1.68-3.24A4.81,4.81,0,0,0,376.27,178.78Z"/><path class="cls-1" d="M396.1,176.32a7.19,7.19,0,0,1,5.37,2.29,8.16,8.16,0,0,1,0,11.19,7.2,7.2,0,0,1-5.37,2.3,6.36,6.36,0,0,1-5.67-3v8.58h-2.61v-21h2.61v2.58A6.36,6.36,0,0,1,396.1,176.32Zm-.33,13.26a5.08,5.08,0,0,0,3.78-1.55,5.55,5.55,0,0,0,0-7.65,5.45,5.45,0,0,0-7.59,0,5.55,5.55,0,0,0,0,7.65A5.11,5.11,0,0,0,395.77,189.58Z"/><path class="cls-1" d="M415.6,179.23h-4v8.13a2.27,2.27,0,0,0,.44,1.57,1.74,1.74,0,0,0,1.33.48c.6,0,1.34,0,2.22,0v2.34c-2.28.3-4,.11-5-.55s-1.59-1.94-1.59-3.8v-8.13h-3v-2.52h3v-3.42l2.61-.78v4.2h4Z"/><path class="cls-1" d="M439.15,176.71h2.79l-6.12,15.93a8.65,8.65,0,0,1-2.68,3.89,5.72,5.72,0,0,1-4,1.18v-2.43q2.74.21,4-3.07l.28-.56-6.54-14.94h2.79l5,11.5Z"/><path class="cls-1" d="M457.25,189.82a7.89,7.89,0,1,1,0-11.22,8,8,0,0,1,0,11.22Zm-5.61-.27a5.23,5.23,0,1,0-3.75-1.53A5.14,5.14,0,0,0,451.64,189.55Z"/><path class="cls-1" d="M474.16,176.71h2.61v15h-2.61v-2.16a5.33,5.33,0,0,1-4.86,2.55,5.58,5.58,0,0,1-4.23-1.67,6.25,6.25,0,0,1-1.59-4.51v-9.21h2.61v9.06a3.84,3.84,0,0,0,1,2.83,3.62,3.62,0,0,0,2.73,1,4.23,4.23,0,0,0,3.15-1.22,5.11,5.11,0,0,0,1.2-3.73Z"/><path class="cls-1" d="M484.39,179.23a4.71,4.71,0,0,1,4.68-2.79v2.73a4.73,4.73,0,0,0-3.3,1,4.31,4.31,0,0,0-1.38,3.57v8h-2.61v-15h2.61Z"/><path class="cls-1" d="M494.89,180.72a1.55,1.55,0,0,0,.88,1.36,9.85,9.85,0,0,0,2.11.87l2.46.72a4.35,4.35,0,0,1,2.09,1.37,3.79,3.79,0,0,1,.86,2.56,3.94,3.94,0,0,1-1.57,3.27,6.38,6.38,0,0,1-4,1.23,7,7,0,0,1-3.75-1,5.37,5.37,0,0,1-2.22-2.55L494,187.3a3.17,3.17,0,0,0,1.35,1.71,4.32,4.32,0,0,0,2.37.63,4.15,4.15,0,0,0,2.13-.49,1.67,1.67,0,0,0,.84-1.55,1.57,1.57,0,0,0-.87-1.39,9,9,0,0,0-2.09-.89l-2.46-.74a4.56,4.56,0,0,1-2.11-1.33,3.52,3.52,0,0,1-.87-2.46,4,4,0,0,1,1.52-3.21,5.72,5.72,0,0,1,3.79-1.26,6.39,6.39,0,0,1,3.26.82,5.34,5.34,0,0,1,2.14,2.3l-2.19,1.23a3.14,3.14,0,0,0-3.21-1.92,3.38,3.38,0,0,0-1.89.51A1.66,1.66,0,0,0,494.89,180.72Z"/><path class="cls-1" d="M509.12,185.41a4.94,4.94,0,0,0,1.84,3.12,5.75,5.75,0,0,0,3.59,1.11,4.69,4.69,0,0,0,4.32-2.19l2.22,1.26a7.33,7.33,0,0,1-6.6,3.39,7.83,7.83,0,0,1-5.81-2.24,7.65,7.65,0,0,1-2.23-5.65,7.76,7.76,0,0,1,2.19-5.64,7.56,7.56,0,0,1,5.67-2.25,6.92,6.92,0,0,1,5.38,2.32,8.12,8.12,0,0,1,2.09,5.6,7.88,7.88,0,0,1-.09,1.17Zm5.19-6.63a5,5,0,0,0-5.19,4.35h10a5,5,0,0,0-1.68-3.24A4.81,4.81,0,0,0,514.31,178.78Z"/><path class="cls-1" d="M525.91,191.71v-21.9h2.6v21.9Z"/><path class="cls-1" d="M541.14,172.84q-4-.33-4,3.42v.45h4v2.52h-4v12.48h-2.61V179.23h-2.4v-2.52h2.4v-.45a5.93,5.93,0,0,1,1.69-4.59,6.31,6.31,0,0,1,4.88-1.35Z"/><polygon class="cls-2" points="7.09 72.28 0 72.28 0 147.71 7.09 147.71 7.09 113.54 46.88 113.54 51.88 106.45 7.09 106.45 7.09 72.28"/><path class="cls-3" d="M321.56,111.71a111.71,111.71,0,0,0-223.42,0h7.08A67.45,67.45,0,0,1,214.55,58.8a56.88,56.88,0,0,0-81.05,51.51c0,.47,0,.93,0,1.4h0A74.54,74.54,0,0,0,262,163.15,104.61,104.61,0,0,1,66.32,111.71V72.28H59.24v39.43a111.71,111.71,0,0,0,223.42,0h-7.09v0A67.45,67.45,0,0,1,158.36,157.3a56.85,56.85,0,0,0,88.9-45.59h0c0-.23,0-.47,0-.7s0-.47,0-.7a56.46,56.46,0,0,0-.8-9.44,74.53,74.53,0,0,0-127.73-40.6,104.61,104.61,0,0,1,195.7,51.44v36.7h56.11v-7.08h-49ZM190.4,160.12A49.82,49.82,0,1,1,239.5,102a67.66,67.66,0,0,1,.69,9.06A49.85,49.85,0,0,1,190.4,160.12Z"/><polygon class="cls-4" points="398.67 78.52 446.13 78.52 446.13 71.43 391.58 71.43 391.58 148.41 446.68 148.41 446.68 141.32 398.67 141.32 398.67 78.52"/><polygon class="cls-5" points="428.99 112.68 433.99 105.6 405.99 105.6 405.99 112.68 428.99 112.68"/><polygon class="cls-6" points="466.57 71.43 499.67 111.19 468.68 148.41 477.9 148.41 504.28 116.73 530.66 148.41 539.88 148.41 475.79 71.43 466.57 71.43"/><polygon class="cls-7" points="541.99 71.43 532.77 71.43 508.85 100.17 513.49 105.67 541.99 71.43"/><polygon class="cls-2" points="7.09 72.28 0 72.28 0 147.71 7.09 147.71 7.09 113.54 46.88 113.54 51.88 106.45 7.09 106.45 7.09 72.28"/><path class="cls-3" d="M321.56,111.71a111.71,111.71,0,0,0-223.42,0h7.08A67.45,67.45,0,0,1,214.55,58.8a56.88,56.88,0,0,0-81.05,51.51c0,.47,0,.93,0,1.4h0A74.54,74.54,0,0,0,262,163.15,104.61,104.61,0,0,1,66.32,111.71V72.28H59.24v39.43a111.71,111.71,0,0,0,223.42,0h-7.09v0A67.45,67.45,0,0,1,158.36,157.3a56.85,56.85,0,0,0,88.9-45.59h0c0-.23,0-.47,0-.7s0-.47,0-.7a56.46,56.46,0,0,0-.8-9.44,74.53,74.53,0,0,0-127.73-40.6,104.61,104.61,0,0,1,195.7,51.44v36.7h56.11v-7.08h-49ZM190.4,160.12A49.82,49.82,0,1,1,239.5,102a67.66,67.66,0,0,1,.69,9.06A49.85,49.85,0,0,1,190.4,160.12Z"/><polygon class="cls-4" points="398.67 78.52 446.13 78.52 446.13 71.43 391.58 71.43 391.58 148.41 446.68 148.41 446.68 141.32 398.67 141.32 398.67 78.52"/><polygon class="cls-5" points="428.99 112.68 433.99 105.6 405.99 105.6 405.99 112.68 428.99 112.68"/><polygon class="cls-6" points="466.57 71.43 499.67 111.19 468.68 148.41 477.9 148.41 504.28 116.73 530.66 148.41 539.88 148.41 475.79 71.43 466.57 71.43"/><polygon class="cls-7" points="541.99 71.43 532.77 71.43 508.85 100.17 513.49 105.67 541.99 71.43"/></g></g></svg>